<?xml version="1.0" encoding="utf-8"?>
<!-- Generator: Adobe Illustrator 16.0.0, SVG Export Plug-In . SVG Version: 6.00 Build 0)  -->
<!DOCTYPE svg PUBLIC "-//W3C//DTD SVG 1.1//EN" "http://www.w3.org/Graphics/SVG/1.1/DTD/svg11.dtd">
<svg version="1.1" id="Layer_1" xmlns="http://www.w3.org/2000/svg" xmlns:xlink="http://www.w3.org/1999/xlink" x="0px" y="0px"
	 width="104.384px" height="104.384px" viewBox="0 0 104.384 104.384" enable-background="new 0 0 104.384 104.384"
	 xml:space="preserve">
<g>
	
		<image overflow="visible" opacity="0.75" width="1179" height="1179" xlink:href="9507AF919038330C.png"  transform="matrix(0.24 0 0 0.24 -71.0933 -99.8481)">
	</image>
	<g>
		
			<linearGradient id="SVGID_1_" gradientUnits="userSpaceOnUse" x1="54.2935" y1="172.7778" x2="54.2935" y2="139.7207" gradientTransform="matrix(0.7071 0.7071 -0.7071 0.7071 140.4485 -109.2746)">
			<stop  offset="0" style="stop-color:#D1E4A5"/>
			<stop  offset="0.1888" style="stop-color:#99CC66"/>
			<stop  offset="0.5357" style="stop-color:#76B83F"/>
			<stop  offset="1" style="stop-color:#9BCC5A"/>
		</linearGradient>
		<polygon fill="url(#SVGID_1_)" points="180.431,175.05 -67.093,-72.475 -43.719,-95.848 203.805,151.675 		"/>
	</g>
</g>
<g>
	<g>
		<line fill="#00A651" x1="-54.209" y1="-101.35" x2="209.306" y2="162.166"/>
		<g>
			<g>
				<g>
					<g>
						
							<rect x="-53.535" y="-101.987" transform="matrix(-0.7071 0.7071 -0.7071 -0.7071 -160.4097 -133.0625)" fill="#39B54A" width="1.777" height="4.468"/>
						
							<rect x="-48.83" y="-97.282" transform="matrix(-0.7072 0.707 -0.707 -0.7072 -149.0432 -128.377)" fill="#39B54A" width="1.777" height="4.468"/>
						
							<rect x="-44.124" y="-92.577" transform="matrix(-0.7071 0.7071 -0.7071 -0.7071 -137.6898 -123.6516)" fill="#39B54A" width="1.777" height="4.468"/>
						
							<rect x="-39.418" y="-87.87" transform="matrix(-0.7071 0.7071 -0.7071 -0.7071 -126.3284 -118.9455)" fill="#39B54A" width="1.777" height="4.467"/>
						
							<rect x="-34.713" y="-83.165" transform="matrix(-0.7071 0.7071 -0.7071 -0.7071 -114.9694 -114.2404)" fill="#39B54A" width="1.777" height="4.468"/>
						
							<rect x="-30.007" y="-78.459" transform="matrix(-0.7071 0.7071 -0.7071 -0.7071 -103.6068 -109.5339)" fill="#39B54A" width="1.777" height="4.468"/>
						
							<rect x="-25.302" y="-73.753" transform="matrix(-0.7071 0.7071 -0.7071 -0.7071 -92.2487 -104.8289)" fill="#39B54A" width="1.777" height="4.467"/>
					</g>
				</g>
				<g>
					<g>
						
							<rect x="-20.596" y="-69.048" transform="matrix(-0.7071 0.7071 -0.7071 -0.7071 -80.8869 -100.123)" fill="#39B54A" width="1.777" height="4.468"/>
						
							<rect x="-15.89" y="-64.343" transform="matrix(-0.7072 0.707 -0.707 -0.7072 -69.5203 -95.4285)" fill="#39B54A" width="1.777" height="4.468"/>
						
							<rect x="-11.185" y="-59.637" transform="matrix(-0.7071 0.7071 -0.7071 -0.7071 -58.167 -90.7121)" fill="#39B54A" width="1.777" height="4.468"/>
						
							<rect x="-6.479" y="-54.93" transform="matrix(-0.7071 0.7071 -0.7071 -0.7071 -46.8055 -86.0061)" fill="#39B54A" width="1.777" height="4.467"/>
						
							<rect x="-1.774" y="-50.226" transform="matrix(-0.7071 0.7071 -0.7071 -0.7071 -35.4465 -81.301)" fill="#39B54A" width="1.777" height="4.468"/>
						
							<rect x="2.933" y="-45.519" transform="matrix(-0.7071 0.7071 -0.7071 -0.7071 -24.0839 -76.5944)" fill="#39B54A" width="1.777" height="4.468"/>
						
							<rect x="7.637" y="-40.814" transform="matrix(-0.7071 0.7071 -0.7071 -0.7071 -12.7258 -71.8894)" fill="#39B54A" width="1.777" height="4.467"/>
					</g>
				</g>
				<g>
					<g>
						
							<rect x="12.343" y="-36.108" transform="matrix(-0.7071 0.7071 -0.7071 -0.7071 -1.364 -67.1836)" fill="#39B54A" width="1.777" height="4.468"/>
						
							<rect x="17.049" y="-31.403" transform="matrix(-0.7071 0.7071 -0.7071 -0.7071 9.9963 -62.478)" fill="#39B54A" width="1.777" height="4.468"/>
						
							<rect x="21.755" y="-26.698" transform="matrix(-0.7071 0.7071 -0.7071 -0.7071 21.3559 -57.7727)" fill="#39B54A" width="1.777" height="4.468"/>
						
							<rect x="26.461" y="-21.991" transform="matrix(-0.7071 0.7071 -0.7071 -0.7071 32.7173 -53.0666)" fill="#39B54A" width="1.777" height="4.467"/>
						
							<rect x="31.166" y="-17.286" transform="matrix(-0.7071 0.7071 -0.7071 -0.7071 44.0764 -48.3615)" fill="#39B54A" width="1.777" height="4.468"/>
						
							<rect x="35.872" y="-12.58" transform="matrix(-0.7071 0.7071 -0.7071 -0.7071 55.439 -43.655)" fill="#39B54A" width="1.777" height="4.468"/>
						
							<rect x="40.577" y="-7.875" transform="matrix(-0.7071 0.7071 -0.7071 -0.7071 66.7971 -38.95)" fill="#39B54A" width="1.777" height="4.467"/>
					</g>
				</g>
				<g>
					<g>
						
							<rect x="45.283" y="-3.169" transform="matrix(-0.7071 0.7071 -0.7071 -0.7071 78.1589 -34.2441)" fill="#39B54A" width="1.777" height="4.468"/>
						
							<rect x="49.988" y="1.537" transform="matrix(-0.7071 0.7071 -0.7071 -0.7071 89.5191 -29.5385)" fill="#39B54A" width="1.777" height="4.468"/>
						
							<rect x="54.694" y="6.242" transform="matrix(-0.7071 0.7071 -0.7071 -0.7071 100.8788 -24.8332)" fill="#39B54A" width="1.777" height="4.468"/>
						
							<rect x="59.4" y="10.949" transform="matrix(-0.7071 0.7071 -0.7071 -0.7071 112.2402 -20.1272)" fill="#39B54A" width="1.777" height="4.467"/>
						
							<rect x="64.105" y="15.653" transform="matrix(-0.7071 0.7071 -0.7071 -0.7071 123.5993 -15.4221)" fill="#39B54A" width="1.777" height="4.468"/>
						
							<rect x="68.812" y="20.36" transform="matrix(-0.7071 0.7071 -0.7071 -0.7071 134.9619 -10.7155)" fill="#39B54A" width="1.777" height="4.468"/>
						
							<rect x="73.516" y="25.065" transform="matrix(-0.7071 0.7071 -0.7071 -0.7071 146.3199 -6.0105)" fill="#39B54A" width="1.777" height="4.467"/>
					</g>
				</g>
				<g>
					<g>
						
							<rect x="78.222" y="29.77" transform="matrix(-0.7071 0.7071 -0.7071 -0.7071 157.6818 -1.3046)" fill="#39B54A" width="1.777" height="4.468"/>
						
							<rect x="82.928" y="34.476" transform="matrix(-0.7072 0.707 -0.707 -0.7072 169.0483 3.4171)" fill="#39B54A" width="1.777" height="4.468"/>
						
							<rect x="87.634" y="39.181" transform="matrix(-0.7071 0.7071 -0.7071 -0.7071 180.4017 8.1062)" fill="#39B54A" width="1.777" height="4.468"/>
						
							<rect x="92.34" y="43.888" transform="matrix(-0.7071 0.7071 -0.7071 -0.7071 191.7631 12.8123)" fill="#39B54A" width="1.777" height="4.467"/>
						
							<rect x="97.045" y="48.592" transform="matrix(-0.7071 0.7071 -0.7071 -0.7071 203.1221 17.5174)" fill="#39B54A" width="1.777" height="4.468"/>
						
							<rect x="101.751" y="53.299" transform="matrix(-0.7071 0.7071 -0.7071 -0.7071 214.4847 22.2239)" fill="#39B54A" width="1.777" height="4.468"/>
						
							<rect x="106.456" y="58.004" transform="matrix(-0.7071 0.7071 -0.7071 -0.7071 225.8428 26.9289)" fill="#39B54A" width="1.777" height="4.467"/>
					</g>
				</g>
				<g>
					<g>
						
							<rect x="111.162" y="62.71" transform="matrix(-0.7071 0.7071 -0.7071 -0.7071 237.2046 31.6348)" fill="#39B54A" width="1.777" height="4.468"/>
						
							<rect x="115.868" y="67.415" transform="matrix(-0.7072 0.707 -0.707 -0.7072 248.5712 36.3656)" fill="#39B54A" width="1.777" height="4.468"/>
						
							<rect x="120.573" y="72.121" transform="matrix(-0.7071 0.7071 -0.7071 -0.7071 259.9245 41.0457)" fill="#39B54A" width="1.777" height="4.468"/>
						
							<rect x="125.279" y="76.827" transform="matrix(-0.7071 0.7071 -0.7071 -0.7071 271.2859 45.7517)" fill="#39B54A" width="1.777" height="4.467"/>
						
							<rect x="129.984" y="81.532" transform="matrix(-0.7071 0.7071 -0.7071 -0.7071 282.645 50.4568)" fill="#39B54A" width="1.777" height="4.468"/>
						
							<rect x="134.691" y="86.238" transform="matrix(-0.7071 0.7071 -0.7071 -0.7071 294.0076 55.1634)" fill="#39B54A" width="1.777" height="4.468"/>
						
							<rect x="139.395" y="90.944" transform="matrix(-0.7071 0.7071 -0.7071 -0.7071 305.3657 59.8684)" fill="#39B54A" width="1.777" height="4.467"/>
					</g>
				</g>
				<g>
					<g>
						
							<rect x="144.101" y="95.649" transform="matrix(-0.7071 0.7071 -0.7071 -0.7071 316.7275 64.5743)" fill="#39B54A" width="1.777" height="4.468"/>
						
							<rect x="148.807" y="100.355" transform="matrix(-0.7072 0.707 -0.707 -0.7072 328.0941 69.3141)" fill="#39B54A" width="1.777" height="4.468"/>
						
							<rect x="153.513" y="105.06" transform="matrix(-0.7071 0.7071 -0.7071 -0.7071 339.4474 73.9851)" fill="#39B54A" width="1.777" height="4.468"/>
						
							<rect x="158.219" y="109.767" transform="matrix(-0.7071 0.7071 -0.7071 -0.7071 350.8088 78.6912)" fill="#39B54A" width="1.777" height="4.467"/>
						
							<rect x="162.924" y="114.471" transform="matrix(-0.7071 0.7071 -0.7071 -0.7071 362.1679 83.3963)" fill="#39B54A" width="1.777" height="4.468"/>
						
							<rect x="167.63" y="119.178" transform="matrix(-0.707 0.7072 -0.7072 -0.707 373.524 88.063)" fill="#39B54A" width="1.777" height="4.468"/>
						
							<rect x="172.334" y="123.883" transform="matrix(-0.7071 0.7071 -0.7071 -0.7071 384.8885 92.8078)" fill="#39B54A" width="1.777" height="4.467"/>
					</g>
				</g>
				<g>
					<g>
						
							<rect x="177.041" y="128.589" transform="matrix(-0.7071 0.7071 -0.7071 -0.7071 396.2504 97.5137)" fill="#39B54A" width="1.777" height="4.468"/>
						
							<rect x="181.746" y="133.294" transform="matrix(-0.7072 0.707 -0.707 -0.7072 407.6165 102.2627)" fill="#39B54A" width="1.777" height="4.469"/>
						
							<rect x="186.452" y="138" transform="matrix(-0.7071 0.7071 -0.7071 -0.7071 418.9703 106.9246)" fill="#39B54A" width="1.777" height="4.468"/>
						
							<rect x="191.158" y="142.706" transform="matrix(-0.7071 0.7071 -0.7071 -0.7071 430.3317 111.6307)" fill="#39B54A" width="1.777" height="4.467"/>
						
							<rect x="195.863" y="147.411" transform="matrix(-0.7071 0.7071 -0.7071 -0.7071 441.6908 116.3357)" fill="#39B54A" width="1.777" height="4.468"/>
						
							<rect x="200.569" y="152.118" transform="matrix(-0.707 0.7072 -0.7072 -0.707 453.0469 120.9934)" fill="#39B54A" width="1.777" height="4.468"/>
						
							<rect x="205.274" y="156.823" transform="matrix(-0.7071 0.7071 -0.7071 -0.7071 464.4114 125.7473)" fill="#39B54A" width="1.777" height="4.467"/>
					</g>
				</g>
			</g>
		</g>
	</g>
	<g>
		<line fill="#00A651" x1="-72.594" y1="-82.965" x2="190.921" y2="180.55"/>
		<g>
			<g>
				<g>
					<g>
						
							<rect x="-71.92" y="-83.603" transform="matrix(-0.7071 0.7071 -0.7071 -0.7071 -178.7945 -88.6777)" fill="#39B54A" width="1.777" height="4.468"/>
						
							<rect x="-67.214" y="-78.897" transform="matrix(-0.7072 0.707 -0.707 -0.7072 -167.433 -83.9922)" fill="#39B54A" width="1.777" height="4.468"/>
						
							<rect x="-62.509" y="-74.192" transform="matrix(-0.7071 0.7071 -0.7071 -0.7071 -156.0746 -79.2668)" fill="#39B54A" width="1.777" height="4.468"/>
						
							<rect x="-57.803" y="-69.485" transform="matrix(-0.7071 0.7071 -0.7071 -0.7071 -144.7132 -74.5608)" fill="#39B54A" width="1.777" height="4.467"/>
						
							<rect x="-53.098" y="-64.781" transform="matrix(-0.7071 0.7071 -0.7071 -0.7071 -133.3541 -69.8557)" fill="#39B54A" width="1.777" height="4.468"/>
						
							<rect x="-48.391" y="-60.074" transform="matrix(-0.7071 0.7071 -0.7071 -0.7071 -121.9915 -65.1491)" fill="#39B54A" width="1.777" height="4.468"/>
						
							<rect x="-43.687" y="-55.369" transform="matrix(-0.7071 0.7071 -0.7071 -0.7071 -110.6335 -60.4441)" fill="#39B54A" width="1.777" height="4.467"/>
					</g>
				</g>
				<g>
					<g>
						
							<rect x="-38.981" y="-50.663" transform="matrix(-0.7071 0.7071 -0.7071 -0.7071 -99.2716 -55.7383)" fill="#39B54A" width="1.777" height="4.468"/>
						
							<rect x="-34.275" y="-45.958" transform="matrix(-0.7071 0.7071 -0.7071 -0.7071 -87.9114 -51.0327)" fill="#39B54A" width="1.777" height="4.468"/>
						
							<rect x="-29.57" y="-41.252" transform="matrix(-0.7071 0.7071 -0.7071 -0.7071 -76.5517 -46.3274)" fill="#39B54A" width="1.777" height="4.468"/>
						
							<rect x="-24.863" y="-36.546" transform="matrix(-0.7071 0.7071 -0.7071 -0.7071 -65.1903 -41.6213)" fill="#39B54A" width="1.777" height="4.467"/>
						
							<rect x="-20.158" y="-31.841" transform="matrix(-0.7071 0.7071 -0.7071 -0.7071 -53.8312 -36.9162)" fill="#39B54A" width="1.777" height="4.468"/>
						
							<rect x="-15.452" y="-27.135" transform="matrix(-0.7071 0.7071 -0.7071 -0.7071 -42.4686 -32.2097)" fill="#39B54A" width="1.777" height="4.468"/>
						
							<rect x="-10.748" y="-22.429" transform="matrix(-0.7071 0.7071 -0.7071 -0.7071 -31.1106 -27.5047)" fill="#39B54A" width="1.777" height="4.467"/>
					</g>
				</g>
				<g>
					<g>
						
							<rect x="-6.041" y="-17.724" transform="matrix(-0.7071 0.7071 -0.7071 -0.7071 -19.7487 -22.7988)" fill="#39B54A" width="1.777" height="4.468"/>
						
							<rect x="-1.336" y="-13.018" transform="matrix(-0.7071 0.7071 -0.7071 -0.7071 -8.3885 -18.0932)" fill="#39B54A" width="1.777" height="4.468"/>
						
							<rect x="3.37" y="-8.313" transform="matrix(-0.7071 0.7071 -0.7071 -0.7071 2.9711 -13.3879)" fill="#39B54A" width="1.777" height="4.468"/>
						
							<rect x="8.076" y="-3.606" transform="matrix(-0.7071 0.7071 -0.7071 -0.7071 14.3326 -8.6819)" fill="#39B54A" width="1.777" height="4.467"/>
						
							<rect x="12.781" y="1.098" transform="matrix(-0.7071 0.7071 -0.7071 -0.7071 25.6916 -3.9768)" fill="#39B54A" width="1.777" height="4.468"/>
						
							<rect x="17.488" y="5.805" transform="matrix(-0.7071 0.7071 -0.7071 -0.7071 37.0542 0.7298)" fill="#39B54A" width="1.777" height="4.468"/>
						
							<rect x="22.192" y="10.51" transform="matrix(-0.7071 0.7071 -0.7071 -0.7071 48.4123 5.4348)" fill="#39B54A" width="1.777" height="4.467"/>
					</g>
				</g>
				<g>
					<g>
						
							<rect x="26.898" y="15.216" transform="matrix(-0.7071 0.7071 -0.7071 -0.7071 59.7741 10.1406)" fill="#39B54A" width="1.777" height="4.468"/>
						
							<rect x="31.604" y="19.921" transform="matrix(-0.7072 0.707 -0.707 -0.7072 71.1356 14.8533)" fill="#39B54A" width="1.777" height="4.468"/>
						
							<rect x="36.309" y="24.627" transform="matrix(-0.7071 0.7071 -0.7071 -0.7071 82.494 19.5515)" fill="#39B54A" width="1.777" height="4.468"/>
						
							<rect x="41.015" y="29.333" transform="matrix(-0.7071 0.7071 -0.7071 -0.7071 93.8554 24.2576)" fill="#39B54A" width="1.777" height="4.467"/>
						
							<rect x="45.721" y="34.038" transform="matrix(-0.7071 0.7071 -0.7071 -0.7071 105.2145 28.9627)" fill="#39B54A" width="1.777" height="4.468"/>
						
							<rect x="50.427" y="38.744" transform="matrix(-0.7071 0.7071 -0.7071 -0.7071 116.5771 33.6692)" fill="#39B54A" width="1.777" height="4.468"/>
						
							<rect x="55.131" y="43.45" transform="matrix(-0.7071 0.7071 -0.7071 -0.7071 127.9352 38.3742)" fill="#39B54A" width="1.777" height="4.467"/>
					</g>
				</g>
				<g>
					<g>
						
							<rect x="59.838" y="48.155" transform="matrix(-0.7071 0.7071 -0.7071 -0.7071 139.297 43.0801)" fill="#39B54A" width="1.777" height="4.468"/>
						
							<rect x="64.543" y="52.861" transform="matrix(-0.7072 0.707 -0.707 -0.7072 150.6585 47.8018)" fill="#39B54A" width="1.777" height="4.468"/>
						
							<rect x="69.249" y="57.566" transform="matrix(-0.7071 0.7071 -0.7071 -0.7071 162.0169 52.491)" fill="#39B54A" width="1.777" height="4.468"/>
						
							<rect x="73.955" y="62.273" transform="matrix(-0.7071 0.7071 -0.7071 -0.7071 173.3783 57.197)" fill="#39B54A" width="1.777" height="4.467"/>
						
							<rect x="78.66" y="66.977" transform="matrix(-0.7071 0.7071 -0.7071 -0.7071 184.7374 61.9021)" fill="#39B54A" width="1.777" height="4.468"/>
						
							<rect x="83.367" y="71.684" transform="matrix(-0.7071 0.7071 -0.7071 -0.7071 196.1 66.6087)" fill="#39B54A" width="1.777" height="4.468"/>
						
							<rect x="88.071" y="76.389" transform="matrix(-0.7071 0.7071 -0.7071 -0.7071 207.458 71.3137)" fill="#39B54A" width="1.777" height="4.467"/>
					</g>
				</g>
				<g>
					<g>
						
							<rect x="92.777" y="81.095" transform="matrix(-0.7071 0.7071 -0.7071 -0.7071 218.8199 76.0195)" fill="#39B54A" width="1.777" height="4.468"/>
						
							<rect x="97.483" y="85.8" transform="matrix(-0.7072 0.707 -0.707 -0.7072 230.1814 80.7503)" fill="#39B54A" width="1.777" height="4.468"/>
						
							<rect x="102.188" y="90.506" transform="matrix(-0.7071 0.7071 -0.7071 -0.7071 241.5398 85.4304)" fill="#39B54A" width="1.777" height="4.468"/>
						
							<rect x="106.894" y="95.212" transform="matrix(-0.7071 0.7071 -0.7071 -0.7071 252.9012 90.1365)" fill="#39B54A" width="1.777" height="4.467"/>
						
							<rect x="111.599" y="99.917" transform="matrix(-0.7071 0.7071 -0.7071 -0.7071 264.2603 94.8416)" fill="#39B54A" width="1.777" height="4.468"/>
						
							<rect x="116.306" y="104.623" transform="matrix(-0.7071 0.7071 -0.7071 -0.7071 275.6229 99.5481)" fill="#39B54A" width="1.777" height="4.468"/>
						
							<rect x="121.01" y="109.329" transform="matrix(-0.7071 0.7071 -0.7071 -0.7071 286.9809 104.2531)" fill="#39B54A" width="1.777" height="4.467"/>
					</g>
				</g>
				<g>
					<g>
						
							<rect x="125.717" y="114.034" transform="matrix(-0.7071 0.7071 -0.7071 -0.7071 298.3427 108.959)" fill="#39B54A" width="1.777" height="4.468"/>
						
							<rect x="130.422" y="118.739" transform="matrix(-0.7072 0.707 -0.707 -0.7072 309.7042 113.6988)" fill="#39B54A" width="1.777" height="4.468"/>
						
							<rect x="135.128" y="123.445" transform="matrix(-0.7071 0.7071 -0.7071 -0.7071 321.0627 118.3699)" fill="#39B54A" width="1.777" height="4.468"/>
						
							<rect x="139.834" y="128.152" transform="matrix(-0.7071 0.7071 -0.7071 -0.7071 332.4241 123.076)" fill="#39B54A" width="1.777" height="4.467"/>
						
							<rect x="144.539" y="132.856" transform="matrix(-0.7071 0.7071 -0.7071 -0.7071 343.7831 127.781)" fill="#39B54A" width="1.777" height="4.468"/>
						
							<rect x="149.245" y="137.563" transform="matrix(-0.707 0.7072 -0.7072 -0.707 355.1443 132.4477)" fill="#39B54A" width="1.777" height="4.468"/>
						
							<rect x="153.95" y="142.268" transform="matrix(-0.7071 0.7071 -0.7071 -0.7071 366.5038 137.1926)" fill="#39B54A" width="1.777" height="4.467"/>
					</g>
				</g>
				<g>
					<g>
						
							<rect x="158.656" y="146.974" transform="matrix(-0.7071 0.7071 -0.7071 -0.7071 377.8656 141.8985)" fill="#39B54A" width="1.777" height="4.468"/>
						
							<rect x="163.362" y="151.679" transform="matrix(-0.7072 0.707 -0.707 -0.7072 389.2271 146.6473)" fill="#39B54A" width="1.777" height="4.468"/>
						
							<rect x="168.067" y="156.384" transform="matrix(-0.7071 0.7071 -0.7071 -0.7071 400.5855 151.3094)" fill="#39B54A" width="1.777" height="4.468"/>
						
							<rect x="172.773" y="161.091" transform="matrix(-0.7071 0.7071 -0.7071 -0.7071 411.9469 156.0154)" fill="#39B54A" width="1.777" height="4.467"/>
						
							<rect x="177.478" y="165.796" transform="matrix(-0.7071 0.7071 -0.7071 -0.7071 423.306 160.7205)" fill="#39B54A" width="1.777" height="4.468"/>
						
							<rect x="182.185" y="170.502" transform="matrix(-0.707 0.7072 -0.7072 -0.707 434.6672 165.3781)" fill="#39B54A" width="1.777" height="4.468"/>
						
							<rect x="186.889" y="175.207" transform="matrix(-0.7071 0.7071 -0.7071 -0.7071 446.0267 170.132)" fill="#39B54A" width="1.777" height="4.467"/>
					</g>
				</g>
			</g>
		</g>
	</g>
</g>
<g>
	
		<image overflow="visible" opacity="0.75" width="364" height="364" xlink:href="9507AF919038330D.png"  transform="matrix(0.24 0 0 0.24 22.418 -4.4971)">
	</image>
	<g>
		
			<rect x="23.356" y="30.869" transform="matrix(0.7071 0.7071 -0.7071 0.7071 48.0233 -36.7358)" fill="none" width="90" height="17.464"/>
		
			<text transform="matrix(0.7071 0.7071 -0.7071 0.7071 30.6606 13.707)" fill="#FFFFFF" font-family="'MyriadPro-Bold'" font-size="24">SPECIAL</text>
	</g>
</g>
</svg>
