<?xml version="1.0" encoding="utf-8"?>
<!-- Generator: Adobe Illustrator 19.2.1, SVG Export Plug-In . SVG Version: 6.00 Build 0)  -->
<svg version="1.1" id="youtube" xmlns="http://www.w3.org/2000/svg" xmlns:xlink="http://www.w3.org/1999/xlink" x="0px" y="0px"
	 viewBox="0 0 96 96" style="enable-background:new 0 0 96 96;" xml:space="preserve">
<style type="text/css">
	.st0{fill:#3B5998;}
	.st1{fill:#FFFFFF;}
	.st2{fill:#CE3825;}
	.st3{fill:#3399CC;}
	.st4{fill:#CB2027;}
	.st5{fill:#00ACED;}
	.st6{fill:#EBEBEB;}
	.st7{fill:#242424;}
	.st8{fill:url(#SVGID_1_);}
	.st9{fill:url(#SVGID_2_);}
	.st10{fill:url(#SVGID_3_);}
</style>
<path class="st0" d="M0,0h32v32H0V0z"/>
<path class="st1" d="M22,32V20h4l0.8-5H22v-3.3c0-1.4,0.5-2.4,2.5-2.4H27V5c-0.4-0.1-1.9-0.2-3.7-0.2c-3.7,0-6.3,2.3-6.3,6.4V15h-4
	v5h4v12H22z"/>
<path d="M16,32.4c-8.8,0-16,7.2-16,16c0,7.1,4.6,13.1,10.9,15.2c0.8,0.1,1.1-0.3,1.1-0.8c0-0.4,0-1.6,0-3c-4.5,1-5.4-1.9-5.4-1.9
	c-0.7-1.8-1.8-2.3-1.8-2.3c-1.5-1,0.1-1,0.1-1c1.6,0.1,2.5,1.6,2.5,1.6c1.4,2.4,3.7,1.7,4.7,1.3c0.1-1,0.6-1.7,1-2.1
	c-3.6-0.4-7.3-1.8-7.3-7.9c0-1.8,0.6-3.2,1.6-4.3c-0.2-0.4-0.7-2,0.2-4.2c0,0,1.3-0.4,4.4,1.6c1.3-0.4,2.7-0.5,4-0.5
	c1.4,0,2.7,0.2,4,0.5c3.1-2.1,4.4-1.6,4.4-1.6c0.9,2.2,0.3,3.8,0.2,4.2c1,1.1,1.6,2.5,1.6,4.3c0,6.1-3.7,7.5-7.3,7.9
	c0.6,0.5,1.1,1.5,1.1,3c0,2.1,0,3.9,0,4.4c0,0.4,0.3,0.9,1.1,0.8C27.4,61.5,32,55.5,32,48.4C32,39.6,24.8,32.4,16,32.4L16,32.4z"/>
<path class="st2" d="M32,32h32v32H32V32z"/>
<g>
	<path class="st1" d="M63,40h-5v-5h-2v5h-5v2h5v5h2v-5h5V40z M50.5,34h-9.7c-1.3,0-2.7,0.2-4.1,0.5c-1.5,0.3-2.9,1.1-4.3,2.2
		c-0.1,0.1-0.2,0.2-0.4,0.4V49c1.3,1.2,3.1,1.9,5.4,1.9c0.5,0,1,0,1.6-0.1c-0.1,0.3-0.2,0.5-0.3,0.8c-0.1,0.3-0.2,0.6-0.2,1.1
		c0,0.7,0.2,1.3,0.5,1.8c0.3,0.5,0.6,1,0.9,1.5c-1.1,0-2.6,0.2-4.3,0.4c-1.2,0.2-2.4,0.6-3.6,1.1v2.7c0.2-0.3,0.5-0.6,0.7-0.8
		c0.5-0.4,0.9-0.7,1.4-0.9c0.4-0.2,0.8-0.3,1-0.4c1-0.3,2-0.5,3.1-0.7c1-0.1,1.7-0.1,1.9-0.1c0.4,0,0.8,0,1.1,0
		c1.8,1.3,3.1,2.3,4,3.2c0.8,0.9,1.2,2,1.2,3.2c0,0.1,0,0.1,0,0.2h2.8c0.2-0.7,0.3-1.4,0.3-2.1c0-1.7-0.4-3-1.1-4
		c-0.8-1-1.7-2-2.7-2.8L44,53.7c-0.3-0.3-0.5-0.5-0.7-0.8c-0.3-0.3-0.4-0.8-0.4-1.3c0-0.5,0.1-1,0.4-1.4c0.2-0.4,0.5-0.7,0.8-1
		c0.5-0.4,1-0.9,1.4-1.3c0.4-0.4,0.8-0.9,1.2-1.4c0.7-1,1.1-2.4,1.2-4.2c0-1-0.1-1.8-0.3-2.5c-0.2-0.6-0.5-1.3-0.9-1.9
		c-0.3-0.5-0.7-1-1.1-1.4c-0.4-0.4-0.7-0.4-1-0.6h3L50.5,34z M43.6,46.2c-0.1,0.6-0.4,1.3-0.8,1.9c-0.9,0.9-1.9,1.3-3.2,1.4
		c-1,0-1.9-0.3-2.7-0.9c-0.8-0.6-1.4-1.4-1.9-2.3c-1-1.9-1.5-3.7-1.5-5.5c0-1.3,0.3-2.5,1.1-3.6c0.9-1,2-1.6,3.3-1.6
		c1,0,1.9,0.3,2.6,0.9c0.7,0.6,1.4,1.3,1.8,2.3c1,2,1.5,3.9,1.5,5.8C43.7,45,43.7,45.6,43.6,46.2L43.6,46.2z"/>
</g>
<path class="st3" d="M64,0h32v32H64V0z"/>
<g>
	<path class="st1" d="M74,27V12h-5v15H74z M82,18.6c0-0.4,0-0.9,0.1-1.2c0.3-0.9,0.6-1.7,1.9-1.7c1.7,0,2,1.2,2,3.2v8h5v-8.6
		c0-4.6-2-6.7-5-6.7c-2.5,0-3.4,1.5-4,2.5V12h-5v15h5V18.6z"/>
	<circle class="st1" cx="71.5" cy="7.5" r="2.5"/>
</g>
<path class="st4" d="M64,32h32v32H64V32z"/>
<path class="st1" d="M73,64c0-1.2,0-2.7,0.4-4l2.2-9.4c0,0-0.6-1.1-0.6-2.7c0-2.6,1.5-4.5,3.4-4.5c1.6,0,2.3,1.2,2.3,2.6
	c0,1.6-1,3.9-1.5,6.1c-0.4,1.8,0.9,3.3,2.7,3.3c3.3,0,5.5-4.2,5.5-9.2c0-3.8-2.5-6.6-7.2-6.6c-5.2,0-8.5,3.9-8.5,8.3
	c0,1.5,0.4,2.6,1.1,3.4c0.3,0.4,0.3,0.6,0.2,1c-0.1,0.3-0.2,1.1-0.3,1.4c-0.1,0.4-0.5,0.5-0.9,0.4c-2.4-1-3.5-3.6-3.5-6.5
	c0-4.9,4.1-10.8,12.3-10.8c6.6,0,10.9,4.8,10.9,9.9c0,6.8-3.8,11.8-9.3,11.8c-1.9,0-3.6-1-4.2-2.1c0,0-1,4-1.2,4.7
	c-0.4,1.3-0.7,2-1.3,3L73,64L73,64z"/>
<path class="st5" d="M0,64h32v32H0V64z"/>
<path class="st1" d="M26.7,73.4c-0.8,0.4-1.6,0.6-2.5,0.7c0.9-0.5,1.6-1.4,1.9-2.4c-0.8,0.5-1.8,0.9-2.8,1c-0.8-0.9-2-1.4-3.2-1.4
	c-2.4,0-4.4,2-4.4,4.4l0,0c0,0.3,0,0.7,0.1,1c-3.5-0.2-6.8-1.8-9-4.6c-0.4,0.7-0.6,1.4-0.6,2.2c0,1.5,0.8,2.9,1.9,3.6
	c-0.7,0-1.4-0.2-2-0.5c0,2.1,1.5,3.9,3.5,4.3c-0.4,0.1-0.8,0.2-1.2,0.2H7.8c0.6,1.7,2.2,3,4,3c-1.6,1.2-3.5,1.9-5.4,1.9
	c-0.4,0-0.7,0-1-0.1c2,1.3,4.3,2,6.7,2c8.1,0,12.5-6.7,12.5-12.5v-0.6C25.3,75,26.1,74.3,26.7,73.4L26.7,73.4z"/>
<path class="st6" d="M32,64h32v32H32V64z"/>
<g>
	<path class="st7" d="M40,66h1.6l1,4.4h0.1l1-4.4h1.6l-1.9,6.4V77h-1.6v-4.4L40,66z M45.2,71c0-0.6,0.2-1.1,0.6-1.4
		c0.4-0.4,0.9-0.5,1.5-0.5c0.6,0,1.1,0.2,1.4,0.6c0.4,0.4,0.6,0.9,0.6,1.5v4c0,0.7-0.2,1.2-0.5,1.6c-0.4,0.4-0.9,0.6-1.5,0.6
		c-0.6,0-1.1-0.2-1.5-0.6c-0.4-0.4-0.6-0.9-0.6-1.6V71L45.2,71z M46.7,75.2c0,0.2,0,0.4,0.2,0.5c0.1,0.1,0.2,0.2,0.4,0.2
		c0.2,0,0.3-0.1,0.5-0.2c0.1-0.1,0.2-0.3,0.2-0.5v-4.3c0-0.2-0.1-0.3-0.2-0.4c-0.1-0.1-0.3-0.2-0.5-0.2c-0.2,0-0.3,0.1-0.4,0.2
		c-0.1,0.1-0.2,0.3-0.2,0.4L46.7,75.2L46.7,75.2z M54.6,69v8h-1.4v-0.9c-0.3,0.3-0.5,0.6-0.8,0.7c-0.3,0.2-0.6,0.2-0.8,0.2
		c-0.3,0-0.6-0.1-0.7-0.3c-0.2-0.2-0.2-0.6-0.2-1.1V69H52v6.2c0,0.2,0,0.3,0.1,0.4c0.1,0.1,0.2,0.1,0.3,0.1c0.1,0,0.2-0.1,0.4-0.2
		c0.2-0.1,0.3-0.2,0.4-0.4V69H54.6L54.6,69z"/>
</g>
<linearGradient id="SVGID_1_" gradientUnits="userSpaceOnUse" x1="-10.745" y1="129.3237" x2="-10.745" y2="144.326" gradientTransform="matrix(1 0 0 -1 58.744 223.324)">
	<stop  offset="0" style="stop-color:#6D0D13"/>
	<stop  offset="0.6" style="stop-color:#AB2624"/>
	<stop  offset="1" style="stop-color:#CD332D"/>
</linearGradient>
<path class="st8" d="M48,94c2.9,0,5.8,0,8.6-0.3c1.2-0.1,2.2-1,2.5-2.1c0.4-1.6,0.4-3.4,0.4-5.1c0-1.7,0-3.5-0.4-5.1
	c-0.3-1.1-1.3-2-2.5-2.1C53.8,79,50.9,79,48,79c-2.9,0-5.8,0-8.6,0.3c-1.2,0.1-2.2,1-2.5,2.1c-0.4,1.6-0.4,3.4-0.4,5.1
	c0,1.7,0,3.5,0.4,5.1c0.3,1.1,1.3,2,2.5,2.1C42.2,94,45.1,94,48,94L48,94z"/>
<g>
	<path class="st1" d="M43.3,81h-4.6v1.6h1.6V92h1.5v-9.4h1.6V81z M45.8,90.1c-0.1,0.2-0.3,0.3-0.4,0.4c-0.2,0.1-0.3,0.2-0.4,0.2
		c-0.1,0-0.2,0-0.3-0.1c-0.1-0.1-0.1-0.2-0.1-0.4V84h-1.3v6.7c0,0.5,0.1,0.8,0.2,1.1c0.2,0.2,0.4,0.4,0.7,0.4c0.2,0,0.5-0.1,0.8-0.3
		c0.3-0.2,0.5-0.4,0.8-0.7V92h1.3v-8h-1.3L45.8,90.1L45.8,90.1z M50.9,83.9c-0.2,0-0.4,0.1-0.6,0.2c-0.2,0.1-0.4,0.3-0.6,0.6V81
		h-1.4v11h1.4v-0.6c0.2,0.2,0.4,0.4,0.6,0.5c0.2,0.1,0.4,0.2,0.7,0.2c0.4,0,0.7-0.1,0.9-0.5c0.2-0.3,0.3-0.7,0.3-1.3v-4.5
		c0-0.7-0.1-1.2-0.3-1.5C51.7,84,51.4,83.9,50.9,83.9L50.9,83.9z M50.9,90.1c0,0.3,0,0.4-0.1,0.6c-0.1,0.1-0.2,0.2-0.4,0.2
		c-0.1,0-0.2,0-0.3-0.1c-0.1-0.1-0.2-0.2-0.3-0.3v-5c0.1-0.1,0.2-0.2,0.3-0.2c0.1-0.1,0.2-0.1,0.3-0.1c0.2,0,0.3,0.1,0.4,0.2
		c0.1,0.1,0.1,0.3,0.1,0.6L50.9,90.1L50.9,90.1z M57.2,88.2v-2c0-0.8-0.2-1.3-0.5-1.8c-0.3-0.4-0.8-0.6-1.4-0.6
		c-0.6,0-1.1,0.2-1.5,0.7c-0.4,0.4-0.6,1-0.6,1.7v3.6c0,0.8,0.2,1.4,0.5,1.8c0.3,0.4,0.8,0.7,1.4,0.7c0.7,0,1.2-0.2,1.5-0.6
		c0.3-0.4,0.5-1,0.5-1.9V89h-1.4v0.7c0,0.5,0,0.8-0.1,0.9c-0.1,0.1-0.2,0.2-0.5,0.2c-0.2,0-0.4-0.1-0.5-0.2
		c-0.1-0.2-0.1-0.5-0.1-0.9v-1.5H57.2L57.2,88.2z M54.6,86.1c0-0.3,0-0.6,0.1-0.7c0.1-0.1,0.2-0.2,0.5-0.2c0.2,0,0.4,0.1,0.4,0.2
		c0.1,0.1,0.1,0.4,0.1,0.7V87h-1.2L54.6,86.1L54.6,86.1z"/>
</g>
<radialGradient id="SVGID_2_" cx="-335.364" cy="-485.5225" r="15.997" gradientTransform="matrix(0 -1.982 -1.8439 0 -854.7549 -630.2294)" gradientUnits="userSpaceOnUse">
	<stop  offset="0" style="stop-color:#FFDD55"/>
	<stop  offset="0.1" style="stop-color:#FFDD55"/>
	<stop  offset="0.5" style="stop-color:#FF543E"/>
	<stop  offset="1" style="stop-color:#C837AB"/>
</radialGradient>
<path class="st9" d="M48,0c-6.7,0-8.6,0-9,0c-1.4,0.1-2.2,0.3-3.2,0.8c-0.7,0.4-1.3,0.8-1.8,1.3c-1,1.1-1.6,2.4-1.9,3.9
	C32,6.8,32,7,32,10.8c0,1.3,0,3,0,5.2c0,6.7,0,8.6,0,9c0.1,1.3,0.3,2.2,0.8,3.1c0.8,1.8,2.5,3.1,4.4,3.6c0.7,0.2,1.4,0.3,2.3,0.3
	c0.4,0,4.4,0,8.5,0s8.1,0,8.5,0c1.1-0.1,1.7-0.1,2.4-0.3c1.9-0.5,3.5-1.8,4.4-3.6c0.4-0.9,0.7-1.8,0.8-3c0-0.3,0-4.7,0-9.1
	c0-4.4,0-8.8,0-9.1c-0.1-1.3-0.3-2.1-0.8-3.1c-0.4-0.7-0.8-1.3-1.4-1.9c-1.1-1-2.4-1.6-3.9-1.8C57.2,0,57,0,53.2,0H48z"/>
<radialGradient id="SVGID_3_" cx="69.452" cy="-28.0163" r="15.997" gradientTransform="matrix(0.1739 0.8687 3.5818 -0.7172 114.908 -78.1225)" gradientUnits="userSpaceOnUse">
	<stop  offset="0" style="stop-color:#3771C8"/>
	<stop  offset="0.128" style="stop-color:#3771C8"/>
	<stop  offset="1" style="stop-color:#6600FF;stop-opacity:0"/>
</radialGradient>
<path class="st10" d="M48,0c-6.7,0-8.6,0-9,0c-1.4,0.1-2.2,0.3-3.2,0.8c-0.7,0.4-1.3,0.8-1.8,1.3c-1,1.1-1.6,2.4-1.9,3.9
	C32,6.8,32,7,32,10.8c0,1.3,0,3,0,5.2c0,6.7,0,8.6,0,9c0.1,1.3,0.3,2.2,0.8,3.1c0.8,1.8,2.5,3.1,4.4,3.6c0.7,0.2,1.4,0.3,2.3,0.3
	c0.4,0,4.4,0,8.5,0s8.1,0,8.5,0c1.1-0.1,1.7-0.1,2.4-0.3c1.9-0.5,3.5-1.8,4.4-3.6c0.4-0.9,0.7-1.8,0.8-3c0-0.3,0-4.7,0-9.1
	c0-4.4,0-8.8,0-9.1c-0.1-1.3-0.3-2.1-0.8-3.1c-0.4-0.7-0.8-1.3-1.4-1.9c-1.1-1-2.4-1.6-3.9-1.8C57.2,0,57,0,53.2,0H48z"/>
<path class="st1" d="M48,4.2c-3.2,0-3.6,0-4.9,0.1c-1.3,0.1-2.1,0.3-2.9,0.5c-0.8,0.3-1.4,0.7-2.1,1.4c-0.7,0.7-1.1,1.3-1.4,2.1
	c-0.3,0.8-0.5,1.6-0.5,2.9c-0.1,1.3-0.1,1.7-0.1,4.9s0,3.6,0.1,4.9c0.1,1.3,0.3,2.1,0.5,2.9c0.3,0.8,0.7,1.4,1.4,2.1
	c0.7,0.7,1.3,1.1,2.1,1.4c0.8,0.3,1.6,0.5,2.9,0.5c1.3,0.1,1.7,0.1,4.9,0.1c3.2,0,3.6,0,4.9-0.1c1.3-0.1,2.1-0.3,2.9-0.5
	c0.8-0.3,1.4-0.7,2.1-1.4c0.7-0.7,1.1-1.3,1.4-2.1c0.3-0.8,0.5-1.6,0.5-2.9c0.1-1.3,0.1-1.7,0.1-4.9s0-3.6-0.1-4.9
	c-0.1-1.3-0.3-2.1-0.5-2.9c-0.3-0.8-0.7-1.4-1.4-2.1c-0.7-0.7-1.3-1.1-2.1-1.4c-0.8-0.3-1.6-0.5-2.9-0.5C51.6,4.2,51.2,4.2,48,4.2
	L48,4.2z M46.9,6.3c0.3,0,0.7,0,1.1,0c3.2,0,3.5,0,4.8,0.1c1.2,0.1,1.8,0.2,2.2,0.4c0.6,0.2,0.9,0.5,1.4,0.9C56.7,8.1,57,8.5,57.2,9
	c0.2,0.4,0.4,1,0.4,2.2c0.1,1.2,0.1,1.6,0.1,4.8s0,3.5-0.1,4.8c-0.1,1.2-0.2,1.8-0.4,2.2c-0.2,0.6-0.5,0.9-0.9,1.4
	c-0.4,0.4-0.8,0.7-1.4,0.9c-0.4,0.2-1,0.4-2.2,0.4c-1.2,0.1-1.6,0.1-4.8,0.1c-3.2,0-3.5,0-4.8-0.1c-1.2-0.1-1.8-0.2-2.2-0.4
	c-0.6-0.2-0.9-0.5-1.4-0.9c-0.4-0.4-0.7-0.8-0.9-1.4c-0.2-0.4-0.4-1-0.4-2.2c-0.1-1.2-0.1-1.6-0.1-4.8s0-3.5,0.1-4.8
	c0.1-1.2,0.2-1.8,0.4-2.2c0.2-0.6,0.5-0.9,0.9-1.4C40.1,7.3,40.5,7,41,6.8c0.4-0.2,1-0.4,2.2-0.4C44.3,6.3,44.7,6.3,46.9,6.3
	L46.9,6.3z M54.3,8.3c-0.8,0-1.4,0.6-1.4,1.4c0,0.8,0.6,1.4,1.4,1.4c0.8,0,1.4-0.6,1.4-1.4C55.7,8.9,55.1,8.3,54.3,8.3L54.3,8.3z
	 M48,9.9c-3.4,0-6.1,2.7-6.1,6.1s2.7,6.1,6.1,6.1c3.4,0,6.1-2.7,6.1-6.1S51.4,9.9,48,9.9L48,9.9z M48,12.1c2.2,0,3.9,1.8,3.9,3.9
	c0,2.2-1.8,3.9-3.9,3.9c-2.2,0-3.9-1.8-3.9-3.9C44.1,13.8,45.8,12.1,48,12.1z"/>
</svg>
